<svg width="121" height="30" viewBox="0 0 121 30" fill="none" xmlns="http://www.w3.org/2000/svg">
<g clip-path="url(#clip0_5_2)">
<path d="M0.835938 10.3516L11.5391 10.3516L11.5391 29.8281H16.8125L16.8125 10.3516L27.5156 10.3516V5.07812L0.835938 5.07812V10.3516Z" fill="#0A2440"/>
<path d="M49.6084 29.8281V13.8281L54.6709 13.8281V29.8281H49.6084ZM54.6709 10.3516V5.07812H49.6084V10.3516H54.6709Z" fill="#0A2440"/>
<path d="M68.7997 29.8281L63.2294 20.3516L57.6591 29.8281H51.4969L60.4403 16.5312L60.4403 5.07812H66.0106L66.0106 16.5312L74.954 29.8281H68.7997Z" fill="#0A2440"/>
<path d="M91.8071 29.8281L91.8071 5.07812H86.7446L86.7446 29.8281H91.8071Z" fill="#0A2440"/>
<path d="M30.4043 23.9531L30.4043 5.07812H35.4668V29.8281H30.4043L30.4043 26.6094C30.4043 25.1094 30.4043 23.9531 30.4043 23.9531ZM46.6074 29.8281H41.5449V5.07812H46.6074V29.8281Z" fill="#0A2440"/>
<path d="M110.165 29.8281L99.1963 17.5V29.8281H93.9229V0.171875H99.1963V12.1719L110.165 0.171875H116.595L105.106 12.8906L117.181 29.8281H110.165Z" fill="#F5A623"/>
<path d="M120.245 29.8281L114.675 20.3516L109.104 29.8281H102.942L111.885 16.5312V5.07812H117.456V16.5312L126.399 29.8281H120.245Z" fill="#F5A623"/>
</g>
<defs>
<clipPath id="clip0_5_2">
<rect width="126" height="30" fill="white"/>
</clipPath>
</defs>
</svg>
